G04 #@! TF.GenerationSoftware,KiCad,Pcbnew,(5.1.2)-1*
G04 #@! TF.CreationDate,2019-07-20T20:07:49-05:00*
G04 #@! TF.ProjectId,rSTM32F030K6T6,7253544d-3332-4463-9033-304b3654362e,rev?*
G04 #@! TF.SameCoordinates,Original*
G04 #@! TF.FileFunction,Copper,L2,Bot*
G04 #@! TF.FilePolarity,Positive*
%FSLAX46Y46*%
G04 Gerber Fmt 4.6, Leading zero omitted, Abs format (unit mm)*
G04 Created by KiCad (PCBNEW (5.1.2)-1) date 2019-07-20 20:07:49*
%MOMM*%
%LPD*%
G04 APERTURE LIST*
%ADD10R,1.250000X1.000000*%
%ADD11O,1.700000X1.700000*%
%ADD12R,1.700000X1.700000*%
%ADD13R,2.000000X1.500000*%
%ADD14R,2.000000X3.800000*%
%ADD15R,0.600000X1.600000*%
%ADD16C,1.300000*%
%ADD17C,1.300000*%
%ADD18C,0.800000*%
%ADD19C,0.350000*%
%ADD20C,0.250000*%
G04 APERTURE END LIST*
D10*
X41200000Y-44700000D03*
X41200000Y-42700000D03*
X52050000Y-47900000D03*
X52050000Y-45900000D03*
D11*
X50800000Y-76200000D03*
X48260000Y-76200000D03*
X45720000Y-76200000D03*
D12*
X43180000Y-76200000D03*
X38100000Y-76200000D03*
D11*
X38100000Y-73660000D03*
X38100000Y-71120000D03*
X38100000Y-68580000D03*
X38100000Y-66040000D03*
X38100000Y-63500000D03*
X38100000Y-60960000D03*
X38100000Y-58420000D03*
X38100000Y-55880000D03*
X38100000Y-53340000D03*
X38100000Y-50800000D03*
X38100000Y-48260000D03*
X38100000Y-45720000D03*
X55880000Y-45720000D03*
X55880000Y-48260000D03*
X55880000Y-50800000D03*
X55880000Y-53340000D03*
X55880000Y-55880000D03*
X55880000Y-58420000D03*
X55880000Y-60960000D03*
X55880000Y-63500000D03*
X55880000Y-66040000D03*
X55880000Y-68580000D03*
X55880000Y-71120000D03*
X55880000Y-73660000D03*
D12*
X55880000Y-76200000D03*
D11*
X50350000Y-56380000D03*
X50350000Y-53840000D03*
D12*
X50350000Y-51300000D03*
D13*
X43500000Y-47300000D03*
X43500000Y-42700000D03*
X43500000Y-45000000D03*
D14*
X49800000Y-45000000D03*
D15*
X47000000Y-57950000D03*
X45800000Y-57950000D03*
X44600000Y-57950000D03*
D16*
X53150000Y-70650000D03*
X37750000Y-41450000D03*
X44200000Y-61800000D03*
X45625000Y-60900000D03*
D17*
X39275000Y-42700000D02*
X41200000Y-42700000D01*
X38100000Y-43875000D02*
X39275000Y-42700000D01*
X38100000Y-45720000D02*
X38100000Y-43875000D01*
X41200000Y-42700000D02*
X43500000Y-42700000D01*
X55160000Y-45000000D02*
X55880000Y-45720000D01*
X49800000Y-45000000D02*
X55160000Y-45000000D01*
X50700000Y-45900000D02*
X49800000Y-45000000D01*
X52050000Y-45900000D02*
X50700000Y-45900000D01*
D18*
X39302081Y-48260000D02*
X40300000Y-49257919D01*
X38100000Y-48260000D02*
X39302081Y-48260000D01*
X40300000Y-49257919D02*
X40300000Y-75250000D01*
X41250000Y-76200000D02*
X43180000Y-76200000D01*
X40300000Y-75250000D02*
X41250000Y-76200000D01*
X43180000Y-74550000D02*
X44130000Y-73600000D01*
X43180000Y-76200000D02*
X43180000Y-74550000D01*
X44130000Y-73600000D02*
X50050000Y-73600000D01*
X50050000Y-73600000D02*
X51650000Y-72000000D01*
X51650000Y-70299998D02*
X53549998Y-68400000D01*
X51650000Y-72000000D02*
X51650000Y-70299998D01*
X52175000Y-45900000D02*
X52050000Y-45900000D01*
X53549998Y-47274998D02*
X52175000Y-45900000D01*
X53549998Y-68400000D02*
X53549998Y-47274998D01*
X43500000Y-45000000D02*
X49800000Y-45000000D01*
X44000000Y-45000000D02*
X44750000Y-44250000D01*
X44750000Y-44250000D02*
X48700000Y-44250000D01*
X48700000Y-44250000D02*
X48750000Y-44200000D01*
X48750000Y-44200000D02*
X48750000Y-43550000D01*
X48750000Y-43550000D02*
X48700000Y-43600000D01*
X48700000Y-43600000D02*
X45400000Y-43600000D01*
X45400000Y-43600000D02*
X45150000Y-43850000D01*
X44000000Y-45000000D02*
X43500000Y-45000000D01*
X45150000Y-43850000D02*
X44000000Y-45000000D01*
X43500000Y-45000000D02*
X43850000Y-45000000D01*
X43850000Y-45000000D02*
X44600000Y-45750000D01*
X44600000Y-45750000D02*
X48700000Y-45750000D01*
X48700000Y-45750000D02*
X48700000Y-46350000D01*
X48700000Y-46350000D02*
X48600000Y-46450000D01*
X48600000Y-46450000D02*
X45550000Y-46450000D01*
X45550000Y-46450000D02*
X45300000Y-46450000D01*
X45300000Y-46450000D02*
X45000000Y-46150000D01*
X49800000Y-45000000D02*
X50800000Y-44000000D01*
X50800000Y-44000000D02*
X50950000Y-44150000D01*
X50950000Y-44150000D02*
X55150000Y-44150000D01*
X55150000Y-44150000D02*
X55500000Y-44500000D01*
X49800000Y-45000000D02*
X49800000Y-44650000D01*
X49800000Y-44650000D02*
X50950000Y-43500000D01*
X50950000Y-43500000D02*
X55000000Y-43500000D01*
X55000000Y-43500000D02*
X56000000Y-44500000D01*
X55700000Y-45900000D02*
X55880000Y-45720000D01*
X52050000Y-45900000D02*
X55700000Y-45900000D01*
D19*
X46569999Y-75350001D02*
X46569999Y-75330001D01*
X45720000Y-76200000D02*
X46569999Y-75350001D01*
X46569999Y-75330001D02*
X47150000Y-74750000D01*
X47150000Y-74750000D02*
X51850000Y-74750000D01*
X53150000Y-73450000D02*
X53150000Y-70650000D01*
X51850000Y-74750000D02*
X53150000Y-73450000D01*
X38100000Y-63500000D02*
X36600000Y-62000000D01*
X36600000Y-62000000D02*
X36600000Y-42600000D01*
X36600000Y-42600000D02*
X37750000Y-41450000D01*
X44600000Y-61400000D02*
X44200000Y-61800000D01*
X44600000Y-57950000D02*
X44600000Y-61400000D01*
X47000000Y-59525000D02*
X47000000Y-57950000D01*
X45625000Y-60900000D02*
X47000000Y-59525000D01*
D20*
G36*
X57500001Y-78500000D02*
G01*
X36500000Y-78500000D01*
X36500000Y-62819238D01*
X36823694Y-63142933D01*
X36794172Y-63240255D01*
X36768589Y-63500000D01*
X36794172Y-63759745D01*
X36869937Y-64009509D01*
X36992972Y-64239692D01*
X37158550Y-64441450D01*
X37360308Y-64607028D01*
X37590491Y-64730063D01*
X37722146Y-64770000D01*
X37590491Y-64809937D01*
X37360308Y-64932972D01*
X37158550Y-65098550D01*
X36992972Y-65300308D01*
X36869937Y-65530491D01*
X36794172Y-65780255D01*
X36768589Y-66040000D01*
X36794172Y-66299745D01*
X36869937Y-66549509D01*
X36992972Y-66779692D01*
X37158550Y-66981450D01*
X37360308Y-67147028D01*
X37590491Y-67270063D01*
X37722146Y-67310000D01*
X37590491Y-67349937D01*
X37360308Y-67472972D01*
X37158550Y-67638550D01*
X36992972Y-67840308D01*
X36869937Y-68070491D01*
X36794172Y-68320255D01*
X36768589Y-68580000D01*
X36794172Y-68839745D01*
X36869937Y-69089509D01*
X36992972Y-69319692D01*
X37158550Y-69521450D01*
X37360308Y-69687028D01*
X37590491Y-69810063D01*
X37722146Y-69850000D01*
X37590491Y-69889937D01*
X37360308Y-70012972D01*
X37158550Y-70178550D01*
X36992972Y-70380308D01*
X36869937Y-70610491D01*
X36794172Y-70860255D01*
X36768589Y-71120000D01*
X36794172Y-71379745D01*
X36869937Y-71629509D01*
X36992972Y-71859692D01*
X37158550Y-72061450D01*
X37360308Y-72227028D01*
X37590491Y-72350063D01*
X37722146Y-72390000D01*
X37590491Y-72429937D01*
X37360308Y-72552972D01*
X37158550Y-72718550D01*
X36992972Y-72920308D01*
X36869937Y-73150491D01*
X36794172Y-73400255D01*
X36768589Y-73660000D01*
X36794172Y-73919745D01*
X36869937Y-74169509D01*
X36992972Y-74399692D01*
X37158550Y-74601450D01*
X37360308Y-74767028D01*
X37558011Y-74872702D01*
X37250000Y-74872702D01*
X37156884Y-74881873D01*
X37067346Y-74909034D01*
X36984827Y-74953141D01*
X36912499Y-75012499D01*
X36853141Y-75084827D01*
X36809034Y-75167346D01*
X36781873Y-75256884D01*
X36772702Y-75350000D01*
X36772702Y-77050000D01*
X36781873Y-77143116D01*
X36809034Y-77232654D01*
X36853141Y-77315173D01*
X36912499Y-77387501D01*
X36984827Y-77446859D01*
X37067346Y-77490966D01*
X37156884Y-77518127D01*
X37250000Y-77527298D01*
X38950000Y-77527298D01*
X39043116Y-77518127D01*
X39132654Y-77490966D01*
X39215173Y-77446859D01*
X39287501Y-77387501D01*
X39346859Y-77315173D01*
X39390966Y-77232654D01*
X39418127Y-77143116D01*
X39427298Y-77050000D01*
X39427298Y-75350000D01*
X39418127Y-75256884D01*
X39390966Y-75167346D01*
X39346859Y-75084827D01*
X39287501Y-75012499D01*
X39215173Y-74953141D01*
X39132654Y-74909034D01*
X39043116Y-74881873D01*
X38950000Y-74872702D01*
X38641989Y-74872702D01*
X38839692Y-74767028D01*
X39041450Y-74601450D01*
X39207028Y-74399692D01*
X39330063Y-74169509D01*
X39405828Y-73919745D01*
X39425001Y-73725082D01*
X39425001Y-75207011D01*
X39420767Y-75250000D01*
X39437661Y-75421529D01*
X39487695Y-75586467D01*
X39525516Y-75657226D01*
X39568945Y-75738476D01*
X39678289Y-75871712D01*
X39711676Y-75899112D01*
X40600888Y-76788325D01*
X40628288Y-76821712D01*
X40761524Y-76931056D01*
X40913532Y-77012305D01*
X41078470Y-77062339D01*
X41250000Y-77079233D01*
X41292979Y-77075000D01*
X41855164Y-77075000D01*
X41861873Y-77143116D01*
X41889034Y-77232654D01*
X41933141Y-77315173D01*
X41992499Y-77387501D01*
X42064827Y-77446859D01*
X42147346Y-77490966D01*
X42236884Y-77518127D01*
X42330000Y-77527298D01*
X44030000Y-77527298D01*
X44123116Y-77518127D01*
X44212654Y-77490966D01*
X44295173Y-77446859D01*
X44367501Y-77387501D01*
X44426859Y-77315173D01*
X44470966Y-77232654D01*
X44498127Y-77143116D01*
X44507298Y-77050000D01*
X44507298Y-76741989D01*
X44612972Y-76939692D01*
X44778550Y-77141450D01*
X44980308Y-77307028D01*
X45210491Y-77430063D01*
X45460255Y-77505828D01*
X45654909Y-77525000D01*
X45785091Y-77525000D01*
X45979745Y-77505828D01*
X46229509Y-77430063D01*
X46459692Y-77307028D01*
X46661450Y-77141450D01*
X46827028Y-76939692D01*
X46950063Y-76709509D01*
X46990000Y-76577854D01*
X47029937Y-76709509D01*
X47152972Y-76939692D01*
X47318550Y-77141450D01*
X47520308Y-77307028D01*
X47750491Y-77430063D01*
X48000255Y-77505828D01*
X48194909Y-77525000D01*
X48325091Y-77525000D01*
X48519745Y-77505828D01*
X48769509Y-77430063D01*
X48999692Y-77307028D01*
X49201450Y-77141450D01*
X49367028Y-76939692D01*
X49490063Y-76709509D01*
X49565828Y-76459745D01*
X49591411Y-76200000D01*
X49565828Y-75940255D01*
X49490063Y-75690491D01*
X49367028Y-75460308D01*
X49317535Y-75400000D01*
X51818079Y-75400000D01*
X51850000Y-75403144D01*
X51881921Y-75400000D01*
X51881932Y-75400000D01*
X51977422Y-75390595D01*
X52099948Y-75353427D01*
X52212868Y-75293070D01*
X52311843Y-75211843D01*
X52332200Y-75187038D01*
X53587044Y-73932195D01*
X53611843Y-73911843D01*
X53632196Y-73887043D01*
X53632199Y-73887040D01*
X53693070Y-73812868D01*
X53753427Y-73699948D01*
X53790595Y-73577422D01*
X53790595Y-73577421D01*
X53800000Y-73481932D01*
X53800000Y-73481924D01*
X53803144Y-73450000D01*
X53800000Y-73418076D01*
X53800000Y-71568709D01*
X53867145Y-71523844D01*
X54023844Y-71367145D01*
X54146962Y-71182887D01*
X54231767Y-70978150D01*
X54275000Y-70760803D01*
X54275000Y-70539197D01*
X54231767Y-70321850D01*
X54146962Y-70117113D01*
X54023844Y-69932855D01*
X53867145Y-69776156D01*
X53682887Y-69653038D01*
X53577889Y-69609546D01*
X54138324Y-69049111D01*
X54171710Y-69021712D01*
X54281054Y-68888476D01*
X54362303Y-68736468D01*
X54412337Y-68571530D01*
X54424998Y-68442979D01*
X54424998Y-68442978D01*
X54429231Y-68400000D01*
X54424998Y-68357021D01*
X54424998Y-50800000D01*
X54548589Y-50800000D01*
X54574172Y-51059745D01*
X54649937Y-51309509D01*
X54772972Y-51539692D01*
X54938550Y-51741450D01*
X55140308Y-51907028D01*
X55370491Y-52030063D01*
X55502146Y-52070000D01*
X55370491Y-52109937D01*
X55140308Y-52232972D01*
X54938550Y-52398550D01*
X54772972Y-52600308D01*
X54649937Y-52830491D01*
X54574172Y-53080255D01*
X54548589Y-53340000D01*
X54574172Y-53599745D01*
X54649937Y-53849509D01*
X54772972Y-54079692D01*
X54938550Y-54281450D01*
X55140308Y-54447028D01*
X55370491Y-54570063D01*
X55502146Y-54610000D01*
X55370491Y-54649937D01*
X55140308Y-54772972D01*
X54938550Y-54938550D01*
X54772972Y-55140308D01*
X54649937Y-55370491D01*
X54574172Y-55620255D01*
X54548589Y-55880000D01*
X54574172Y-56139745D01*
X54649937Y-56389509D01*
X54772972Y-56619692D01*
X54938550Y-56821450D01*
X55140308Y-56987028D01*
X55370491Y-57110063D01*
X55502146Y-57150000D01*
X55370491Y-57189937D01*
X55140308Y-57312972D01*
X54938550Y-57478550D01*
X54772972Y-57680308D01*
X54649937Y-57910491D01*
X54574172Y-58160255D01*
X54548589Y-58420000D01*
X54574172Y-58679745D01*
X54649937Y-58929509D01*
X54772972Y-59159692D01*
X54938550Y-59361450D01*
X55140308Y-59527028D01*
X55370491Y-59650063D01*
X55502146Y-59690000D01*
X55370491Y-59729937D01*
X55140308Y-59852972D01*
X54938550Y-60018550D01*
X54772972Y-60220308D01*
X54649937Y-60450491D01*
X54574172Y-60700255D01*
X54548589Y-60960000D01*
X54574172Y-61219745D01*
X54649937Y-61469509D01*
X54772972Y-61699692D01*
X54938550Y-61901450D01*
X55140308Y-62067028D01*
X55370491Y-62190063D01*
X55502146Y-62230000D01*
X55370491Y-62269937D01*
X55140308Y-62392972D01*
X54938550Y-62558550D01*
X54772972Y-62760308D01*
X54649937Y-62990491D01*
X54574172Y-63240255D01*
X54548589Y-63500000D01*
X54574172Y-63759745D01*
X54649937Y-64009509D01*
X54772972Y-64239692D01*
X54938550Y-64441450D01*
X55140308Y-64607028D01*
X55370491Y-64730063D01*
X55502146Y-64770000D01*
X55370491Y-64809937D01*
X55140308Y-64932972D01*
X54938550Y-65098550D01*
X54772972Y-65300308D01*
X54649937Y-65530491D01*
X54574172Y-65780255D01*
X54548589Y-66040000D01*
X54574172Y-66299745D01*
X54649937Y-66549509D01*
X54772972Y-66779692D01*
X54938550Y-66981450D01*
X55140308Y-67147028D01*
X55370491Y-67270063D01*
X55502146Y-67310000D01*
X55370491Y-67349937D01*
X55140308Y-67472972D01*
X54938550Y-67638550D01*
X54772972Y-67840308D01*
X54649937Y-68070491D01*
X54574172Y-68320255D01*
X54548589Y-68580000D01*
X54574172Y-68839745D01*
X54649937Y-69089509D01*
X54772972Y-69319692D01*
X54938550Y-69521450D01*
X55140308Y-69687028D01*
X55370491Y-69810063D01*
X55502146Y-69850000D01*
X55370491Y-69889937D01*
X55140308Y-70012972D01*
X54938550Y-70178550D01*
X54772972Y-70380308D01*
X54649937Y-70610491D01*
X54574172Y-70860255D01*
X54548589Y-71120000D01*
X54574172Y-71379745D01*
X54649937Y-71629509D01*
X54772972Y-71859692D01*
X54938550Y-72061450D01*
X55140308Y-72227028D01*
X55370491Y-72350063D01*
X55502146Y-72390000D01*
X55370491Y-72429937D01*
X55140308Y-72552972D01*
X54938550Y-72718550D01*
X54772972Y-72920308D01*
X54649937Y-73150491D01*
X54574172Y-73400255D01*
X54548589Y-73660000D01*
X54574172Y-73919745D01*
X54649937Y-74169509D01*
X54772972Y-74399692D01*
X54938550Y-74601450D01*
X55140308Y-74767028D01*
X55338011Y-74872702D01*
X55030000Y-74872702D01*
X54936884Y-74881873D01*
X54847346Y-74909034D01*
X54764827Y-74953141D01*
X54692499Y-75012499D01*
X54633141Y-75084827D01*
X54589034Y-75167346D01*
X54561873Y-75256884D01*
X54552702Y-75350000D01*
X54552702Y-77050000D01*
X54561873Y-77143116D01*
X54589034Y-77232654D01*
X54633141Y-77315173D01*
X54692499Y-77387501D01*
X54764827Y-77446859D01*
X54847346Y-77490966D01*
X54936884Y-77518127D01*
X55030000Y-77527298D01*
X56730000Y-77527298D01*
X56823116Y-77518127D01*
X56912654Y-77490966D01*
X56995173Y-77446859D01*
X57067501Y-77387501D01*
X57126859Y-77315173D01*
X57170966Y-77232654D01*
X57198127Y-77143116D01*
X57207298Y-77050000D01*
X57207298Y-75350000D01*
X57198127Y-75256884D01*
X57170966Y-75167346D01*
X57126859Y-75084827D01*
X57067501Y-75012499D01*
X56995173Y-74953141D01*
X56912654Y-74909034D01*
X56823116Y-74881873D01*
X56730000Y-74872702D01*
X56421989Y-74872702D01*
X56619692Y-74767028D01*
X56821450Y-74601450D01*
X56987028Y-74399692D01*
X57110063Y-74169509D01*
X57185828Y-73919745D01*
X57211411Y-73660000D01*
X57185828Y-73400255D01*
X57110063Y-73150491D01*
X56987028Y-72920308D01*
X56821450Y-72718550D01*
X56619692Y-72552972D01*
X56389509Y-72429937D01*
X56257854Y-72390000D01*
X56389509Y-72350063D01*
X56619692Y-72227028D01*
X56821450Y-72061450D01*
X56987028Y-71859692D01*
X57110063Y-71629509D01*
X57185828Y-71379745D01*
X57211411Y-71120000D01*
X57185828Y-70860255D01*
X57110063Y-70610491D01*
X56987028Y-70380308D01*
X56821450Y-70178550D01*
X56619692Y-70012972D01*
X56389509Y-69889937D01*
X56257854Y-69850000D01*
X56389509Y-69810063D01*
X56619692Y-69687028D01*
X56821450Y-69521450D01*
X56987028Y-69319692D01*
X57110063Y-69089509D01*
X57185828Y-68839745D01*
X57211411Y-68580000D01*
X57185828Y-68320255D01*
X57110063Y-68070491D01*
X56987028Y-67840308D01*
X56821450Y-67638550D01*
X56619692Y-67472972D01*
X56389509Y-67349937D01*
X56257854Y-67310000D01*
X56389509Y-67270063D01*
X56619692Y-67147028D01*
X56821450Y-66981450D01*
X56987028Y-66779692D01*
X57110063Y-66549509D01*
X57185828Y-66299745D01*
X57211411Y-66040000D01*
X57185828Y-65780255D01*
X57110063Y-65530491D01*
X56987028Y-65300308D01*
X56821450Y-65098550D01*
X56619692Y-64932972D01*
X56389509Y-64809937D01*
X56257854Y-64770000D01*
X56389509Y-64730063D01*
X56619692Y-64607028D01*
X56821450Y-64441450D01*
X56987028Y-64239692D01*
X57110063Y-64009509D01*
X57185828Y-63759745D01*
X57211411Y-63500000D01*
X57185828Y-63240255D01*
X57110063Y-62990491D01*
X56987028Y-62760308D01*
X56821450Y-62558550D01*
X56619692Y-62392972D01*
X56389509Y-62269937D01*
X56257854Y-62230000D01*
X56389509Y-62190063D01*
X56619692Y-62067028D01*
X56821450Y-61901450D01*
X56987028Y-61699692D01*
X57110063Y-61469509D01*
X57185828Y-61219745D01*
X57211411Y-60960000D01*
X57185828Y-60700255D01*
X57110063Y-60450491D01*
X56987028Y-60220308D01*
X56821450Y-60018550D01*
X56619692Y-59852972D01*
X56389509Y-59729937D01*
X56257854Y-59690000D01*
X56389509Y-59650063D01*
X56619692Y-59527028D01*
X56821450Y-59361450D01*
X56987028Y-59159692D01*
X57110063Y-58929509D01*
X57185828Y-58679745D01*
X57211411Y-58420000D01*
X57185828Y-58160255D01*
X57110063Y-57910491D01*
X56987028Y-57680308D01*
X56821450Y-57478550D01*
X56619692Y-57312972D01*
X56389509Y-57189937D01*
X56257854Y-57150000D01*
X56389509Y-57110063D01*
X56619692Y-56987028D01*
X56821450Y-56821450D01*
X56987028Y-56619692D01*
X57110063Y-56389509D01*
X57185828Y-56139745D01*
X57211411Y-55880000D01*
X57185828Y-55620255D01*
X57110063Y-55370491D01*
X56987028Y-55140308D01*
X56821450Y-54938550D01*
X56619692Y-54772972D01*
X56389509Y-54649937D01*
X56257854Y-54610000D01*
X56389509Y-54570063D01*
X56619692Y-54447028D01*
X56821450Y-54281450D01*
X56987028Y-54079692D01*
X57110063Y-53849509D01*
X57185828Y-53599745D01*
X57211411Y-53340000D01*
X57185828Y-53080255D01*
X57110063Y-52830491D01*
X56987028Y-52600308D01*
X56821450Y-52398550D01*
X56619692Y-52232972D01*
X56389509Y-52109937D01*
X56257854Y-52070000D01*
X56389509Y-52030063D01*
X56619692Y-51907028D01*
X56821450Y-51741450D01*
X56987028Y-51539692D01*
X57110063Y-51309509D01*
X57185828Y-51059745D01*
X57211411Y-50800000D01*
X57185828Y-50540255D01*
X57110063Y-50290491D01*
X56987028Y-50060308D01*
X56821450Y-49858550D01*
X56619692Y-49692972D01*
X56389509Y-49569937D01*
X56139745Y-49494172D01*
X55945091Y-49475000D01*
X55814909Y-49475000D01*
X55620255Y-49494172D01*
X55370491Y-49569937D01*
X55140308Y-49692972D01*
X54938550Y-49858550D01*
X54772972Y-50060308D01*
X54649937Y-50290491D01*
X54574172Y-50540255D01*
X54548589Y-50800000D01*
X54424998Y-50800000D01*
X54424998Y-47317977D01*
X54429231Y-47274998D01*
X54412337Y-47103468D01*
X54362303Y-46938530D01*
X54360416Y-46935000D01*
X54281054Y-46786522D01*
X54271598Y-46775000D01*
X55076912Y-46775000D01*
X55140308Y-46827028D01*
X55370491Y-46950063D01*
X55620255Y-47025828D01*
X55814909Y-47045000D01*
X55945091Y-47045000D01*
X56139745Y-47025828D01*
X56389509Y-46950063D01*
X56619692Y-46827028D01*
X56821450Y-46661450D01*
X56987028Y-46459692D01*
X57110063Y-46229509D01*
X57185828Y-45979745D01*
X57211411Y-45720000D01*
X57185828Y-45460255D01*
X57110063Y-45210491D01*
X56987028Y-44980308D01*
X56827601Y-44786045D01*
X56862339Y-44671530D01*
X56879233Y-44500000D01*
X56862339Y-44328470D01*
X56812305Y-44163532D01*
X56731056Y-44011524D01*
X56649109Y-43911672D01*
X55649116Y-42911680D01*
X55621712Y-42878288D01*
X55488476Y-42768944D01*
X55336468Y-42687695D01*
X55171530Y-42637661D01*
X55042979Y-42625000D01*
X55000000Y-42620767D01*
X54957021Y-42625000D01*
X50992979Y-42625000D01*
X50950000Y-42620767D01*
X50907021Y-42625000D01*
X50865177Y-42629121D01*
X50800000Y-42622702D01*
X48800000Y-42622702D01*
X48706884Y-42631873D01*
X48617346Y-42659034D01*
X48544520Y-42697960D01*
X48455382Y-42725000D01*
X45442978Y-42725000D01*
X45399999Y-42720767D01*
X45228469Y-42737661D01*
X45205737Y-42744557D01*
X45063532Y-42787695D01*
X44977298Y-42833787D01*
X44977298Y-41950000D01*
X44968127Y-41856884D01*
X44940966Y-41767346D01*
X44896859Y-41684827D01*
X44837501Y-41612499D01*
X44765173Y-41553141D01*
X44682654Y-41509034D01*
X44593116Y-41481873D01*
X44500000Y-41472702D01*
X42500000Y-41472702D01*
X42406884Y-41481873D01*
X42317346Y-41509034D01*
X42234827Y-41553141D01*
X42208192Y-41575000D01*
X39330261Y-41575000D01*
X39275000Y-41569557D01*
X39219738Y-41575000D01*
X39219736Y-41575000D01*
X39054462Y-41591278D01*
X38857025Y-41651170D01*
X38875000Y-41560803D01*
X38875000Y-41339197D01*
X38831767Y-41121850D01*
X38746962Y-40917113D01*
X38623844Y-40732855D01*
X38467145Y-40576156D01*
X38282887Y-40453038D01*
X38078150Y-40368233D01*
X37860803Y-40325000D01*
X37639197Y-40325000D01*
X37421850Y-40368233D01*
X37217113Y-40453038D01*
X37032855Y-40576156D01*
X36876156Y-40732855D01*
X36753038Y-40917113D01*
X36668233Y-41121850D01*
X36625000Y-41339197D01*
X36625000Y-41560803D01*
X36640755Y-41640007D01*
X36500000Y-41780762D01*
X36500000Y-38500000D01*
X57500000Y-38500000D01*
X57500001Y-78500000D01*
X57500001Y-78500000D01*
G37*
X57500001Y-78500000D02*
X36500000Y-78500000D01*
X36500000Y-62819238D01*
X36823694Y-63142933D01*
X36794172Y-63240255D01*
X36768589Y-63500000D01*
X36794172Y-63759745D01*
X36869937Y-64009509D01*
X36992972Y-64239692D01*
X37158550Y-64441450D01*
X37360308Y-64607028D01*
X37590491Y-64730063D01*
X37722146Y-64770000D01*
X37590491Y-64809937D01*
X37360308Y-64932972D01*
X37158550Y-65098550D01*
X36992972Y-65300308D01*
X36869937Y-65530491D01*
X36794172Y-65780255D01*
X36768589Y-66040000D01*
X36794172Y-66299745D01*
X36869937Y-66549509D01*
X36992972Y-66779692D01*
X37158550Y-66981450D01*
X37360308Y-67147028D01*
X37590491Y-67270063D01*
X37722146Y-67310000D01*
X37590491Y-67349937D01*
X37360308Y-67472972D01*
X37158550Y-67638550D01*
X36992972Y-67840308D01*
X36869937Y-68070491D01*
X36794172Y-68320255D01*
X36768589Y-68580000D01*
X36794172Y-68839745D01*
X36869937Y-69089509D01*
X36992972Y-69319692D01*
X37158550Y-69521450D01*
X37360308Y-69687028D01*
X37590491Y-69810063D01*
X37722146Y-69850000D01*
X37590491Y-69889937D01*
X37360308Y-70012972D01*
X37158550Y-70178550D01*
X36992972Y-70380308D01*
X36869937Y-70610491D01*
X36794172Y-70860255D01*
X36768589Y-71120000D01*
X36794172Y-71379745D01*
X36869937Y-71629509D01*
X36992972Y-71859692D01*
X37158550Y-72061450D01*
X37360308Y-72227028D01*
X37590491Y-72350063D01*
X37722146Y-72390000D01*
X37590491Y-72429937D01*
X37360308Y-72552972D01*
X37158550Y-72718550D01*
X36992972Y-72920308D01*
X36869937Y-73150491D01*
X36794172Y-73400255D01*
X36768589Y-73660000D01*
X36794172Y-73919745D01*
X36869937Y-74169509D01*
X36992972Y-74399692D01*
X37158550Y-74601450D01*
X37360308Y-74767028D01*
X37558011Y-74872702D01*
X37250000Y-74872702D01*
X37156884Y-74881873D01*
X37067346Y-74909034D01*
X36984827Y-74953141D01*
X36912499Y-75012499D01*
X36853141Y-75084827D01*
X36809034Y-75167346D01*
X36781873Y-75256884D01*
X36772702Y-75350000D01*
X36772702Y-77050000D01*
X36781873Y-77143116D01*
X36809034Y-77232654D01*
X36853141Y-77315173D01*
X36912499Y-77387501D01*
X36984827Y-77446859D01*
X37067346Y-77490966D01*
X37156884Y-77518127D01*
X37250000Y-77527298D01*
X38950000Y-77527298D01*
X39043116Y-77518127D01*
X39132654Y-77490966D01*
X39215173Y-77446859D01*
X39287501Y-77387501D01*
X39346859Y-77315173D01*
X39390966Y-77232654D01*
X39418127Y-77143116D01*
X39427298Y-77050000D01*
X39427298Y-75350000D01*
X39418127Y-75256884D01*
X39390966Y-75167346D01*
X39346859Y-75084827D01*
X39287501Y-75012499D01*
X39215173Y-74953141D01*
X39132654Y-74909034D01*
X39043116Y-74881873D01*
X38950000Y-74872702D01*
X38641989Y-74872702D01*
X38839692Y-74767028D01*
X39041450Y-74601450D01*
X39207028Y-74399692D01*
X39330063Y-74169509D01*
X39405828Y-73919745D01*
X39425001Y-73725082D01*
X39425001Y-75207011D01*
X39420767Y-75250000D01*
X39437661Y-75421529D01*
X39487695Y-75586467D01*
X39525516Y-75657226D01*
X39568945Y-75738476D01*
X39678289Y-75871712D01*
X39711676Y-75899112D01*
X40600888Y-76788325D01*
X40628288Y-76821712D01*
X40761524Y-76931056D01*
X40913532Y-77012305D01*
X41078470Y-77062339D01*
X41250000Y-77079233D01*
X41292979Y-77075000D01*
X41855164Y-77075000D01*
X41861873Y-77143116D01*
X41889034Y-77232654D01*
X41933141Y-77315173D01*
X41992499Y-77387501D01*
X42064827Y-77446859D01*
X42147346Y-77490966D01*
X42236884Y-77518127D01*
X42330000Y-77527298D01*
X44030000Y-77527298D01*
X44123116Y-77518127D01*
X44212654Y-77490966D01*
X44295173Y-77446859D01*
X44367501Y-77387501D01*
X44426859Y-77315173D01*
X44470966Y-77232654D01*
X44498127Y-77143116D01*
X44507298Y-77050000D01*
X44507298Y-76741989D01*
X44612972Y-76939692D01*
X44778550Y-77141450D01*
X44980308Y-77307028D01*
X45210491Y-77430063D01*
X45460255Y-77505828D01*
X45654909Y-77525000D01*
X45785091Y-77525000D01*
X45979745Y-77505828D01*
X46229509Y-77430063D01*
X46459692Y-77307028D01*
X46661450Y-77141450D01*
X46827028Y-76939692D01*
X46950063Y-76709509D01*
X46990000Y-76577854D01*
X47029937Y-76709509D01*
X47152972Y-76939692D01*
X47318550Y-77141450D01*
X47520308Y-77307028D01*
X47750491Y-77430063D01*
X48000255Y-77505828D01*
X48194909Y-77525000D01*
X48325091Y-77525000D01*
X48519745Y-77505828D01*
X48769509Y-77430063D01*
X48999692Y-77307028D01*
X49201450Y-77141450D01*
X49367028Y-76939692D01*
X49490063Y-76709509D01*
X49565828Y-76459745D01*
X49591411Y-76200000D01*
X49565828Y-75940255D01*
X49490063Y-75690491D01*
X49367028Y-75460308D01*
X49317535Y-75400000D01*
X51818079Y-75400000D01*
X51850000Y-75403144D01*
X51881921Y-75400000D01*
X51881932Y-75400000D01*
X51977422Y-75390595D01*
X52099948Y-75353427D01*
X52212868Y-75293070D01*
X52311843Y-75211843D01*
X52332200Y-75187038D01*
X53587044Y-73932195D01*
X53611843Y-73911843D01*
X53632196Y-73887043D01*
X53632199Y-73887040D01*
X53693070Y-73812868D01*
X53753427Y-73699948D01*
X53790595Y-73577422D01*
X53790595Y-73577421D01*
X53800000Y-73481932D01*
X53800000Y-73481924D01*
X53803144Y-73450000D01*
X53800000Y-73418076D01*
X53800000Y-71568709D01*
X53867145Y-71523844D01*
X54023844Y-71367145D01*
X54146962Y-71182887D01*
X54231767Y-70978150D01*
X54275000Y-70760803D01*
X54275000Y-70539197D01*
X54231767Y-70321850D01*
X54146962Y-70117113D01*
X54023844Y-69932855D01*
X53867145Y-69776156D01*
X53682887Y-69653038D01*
X53577889Y-69609546D01*
X54138324Y-69049111D01*
X54171710Y-69021712D01*
X54281054Y-68888476D01*
X54362303Y-68736468D01*
X54412337Y-68571530D01*
X54424998Y-68442979D01*
X54424998Y-68442978D01*
X54429231Y-68400000D01*
X54424998Y-68357021D01*
X54424998Y-50800000D01*
X54548589Y-50800000D01*
X54574172Y-51059745D01*
X54649937Y-51309509D01*
X54772972Y-51539692D01*
X54938550Y-51741450D01*
X55140308Y-51907028D01*
X55370491Y-52030063D01*
X55502146Y-52070000D01*
X55370491Y-52109937D01*
X55140308Y-52232972D01*
X54938550Y-52398550D01*
X54772972Y-52600308D01*
X54649937Y-52830491D01*
X54574172Y-53080255D01*
X54548589Y-53340000D01*
X54574172Y-53599745D01*
X54649937Y-53849509D01*
X54772972Y-54079692D01*
X54938550Y-54281450D01*
X55140308Y-54447028D01*
X55370491Y-54570063D01*
X55502146Y-54610000D01*
X55370491Y-54649937D01*
X55140308Y-54772972D01*
X54938550Y-54938550D01*
X54772972Y-55140308D01*
X54649937Y-55370491D01*
X54574172Y-55620255D01*
X54548589Y-55880000D01*
X54574172Y-56139745D01*
X54649937Y-56389509D01*
X54772972Y-56619692D01*
X54938550Y-56821450D01*
X55140308Y-56987028D01*
X55370491Y-57110063D01*
X55502146Y-57150000D01*
X55370491Y-57189937D01*
X55140308Y-57312972D01*
X54938550Y-57478550D01*
X54772972Y-57680308D01*
X54649937Y-57910491D01*
X54574172Y-58160255D01*
X54548589Y-58420000D01*
X54574172Y-58679745D01*
X54649937Y-58929509D01*
X54772972Y-59159692D01*
X54938550Y-59361450D01*
X55140308Y-59527028D01*
X55370491Y-59650063D01*
X55502146Y-59690000D01*
X55370491Y-59729937D01*
X55140308Y-59852972D01*
X54938550Y-60018550D01*
X54772972Y-60220308D01*
X54649937Y-60450491D01*
X54574172Y-60700255D01*
X54548589Y-60960000D01*
X54574172Y-61219745D01*
X54649937Y-61469509D01*
X54772972Y-61699692D01*
X54938550Y-61901450D01*
X55140308Y-62067028D01*
X55370491Y-62190063D01*
X55502146Y-62230000D01*
X55370491Y-62269937D01*
X55140308Y-62392972D01*
X54938550Y-62558550D01*
X54772972Y-62760308D01*
X54649937Y-62990491D01*
X54574172Y-63240255D01*
X54548589Y-63500000D01*
X54574172Y-63759745D01*
X54649937Y-64009509D01*
X54772972Y-64239692D01*
X54938550Y-64441450D01*
X55140308Y-64607028D01*
X55370491Y-64730063D01*
X55502146Y-64770000D01*
X55370491Y-64809937D01*
X55140308Y-64932972D01*
X54938550Y-65098550D01*
X54772972Y-65300308D01*
X54649937Y-65530491D01*
X54574172Y-65780255D01*
X54548589Y-66040000D01*
X54574172Y-66299745D01*
X54649937Y-66549509D01*
X54772972Y-66779692D01*
X54938550Y-66981450D01*
X55140308Y-67147028D01*
X55370491Y-67270063D01*
X55502146Y-67310000D01*
X55370491Y-67349937D01*
X55140308Y-67472972D01*
X54938550Y-67638550D01*
X54772972Y-67840308D01*
X54649937Y-68070491D01*
X54574172Y-68320255D01*
X54548589Y-68580000D01*
X54574172Y-68839745D01*
X54649937Y-69089509D01*
X54772972Y-69319692D01*
X54938550Y-69521450D01*
X55140308Y-69687028D01*
X55370491Y-69810063D01*
X55502146Y-69850000D01*
X55370491Y-69889937D01*
X55140308Y-70012972D01*
X54938550Y-70178550D01*
X54772972Y-70380308D01*
X54649937Y-70610491D01*
X54574172Y-70860255D01*
X54548589Y-71120000D01*
X54574172Y-71379745D01*
X54649937Y-71629509D01*
X54772972Y-71859692D01*
X54938550Y-72061450D01*
X55140308Y-72227028D01*
X55370491Y-72350063D01*
X55502146Y-72390000D01*
X55370491Y-72429937D01*
X55140308Y-72552972D01*
X54938550Y-72718550D01*
X54772972Y-72920308D01*
X54649937Y-73150491D01*
X54574172Y-73400255D01*
X54548589Y-73660000D01*
X54574172Y-73919745D01*
X54649937Y-74169509D01*
X54772972Y-74399692D01*
X54938550Y-74601450D01*
X55140308Y-74767028D01*
X55338011Y-74872702D01*
X55030000Y-74872702D01*
X54936884Y-74881873D01*
X54847346Y-74909034D01*
X54764827Y-74953141D01*
X54692499Y-75012499D01*
X54633141Y-75084827D01*
X54589034Y-75167346D01*
X54561873Y-75256884D01*
X54552702Y-75350000D01*
X54552702Y-77050000D01*
X54561873Y-77143116D01*
X54589034Y-77232654D01*
X54633141Y-77315173D01*
X54692499Y-77387501D01*
X54764827Y-77446859D01*
X54847346Y-77490966D01*
X54936884Y-77518127D01*
X55030000Y-77527298D01*
X56730000Y-77527298D01*
X56823116Y-77518127D01*
X56912654Y-77490966D01*
X56995173Y-77446859D01*
X57067501Y-77387501D01*
X57126859Y-77315173D01*
X57170966Y-77232654D01*
X57198127Y-77143116D01*
X57207298Y-77050000D01*
X57207298Y-75350000D01*
X57198127Y-75256884D01*
X57170966Y-75167346D01*
X57126859Y-75084827D01*
X57067501Y-75012499D01*
X56995173Y-74953141D01*
X56912654Y-74909034D01*
X56823116Y-74881873D01*
X56730000Y-74872702D01*
X56421989Y-74872702D01*
X56619692Y-74767028D01*
X56821450Y-74601450D01*
X56987028Y-74399692D01*
X57110063Y-74169509D01*
X57185828Y-73919745D01*
X57211411Y-73660000D01*
X57185828Y-73400255D01*
X57110063Y-73150491D01*
X56987028Y-72920308D01*
X56821450Y-72718550D01*
X56619692Y-72552972D01*
X56389509Y-72429937D01*
X56257854Y-72390000D01*
X56389509Y-72350063D01*
X56619692Y-72227028D01*
X56821450Y-72061450D01*
X56987028Y-71859692D01*
X57110063Y-71629509D01*
X57185828Y-71379745D01*
X57211411Y-71120000D01*
X57185828Y-70860255D01*
X57110063Y-70610491D01*
X56987028Y-70380308D01*
X56821450Y-70178550D01*
X56619692Y-70012972D01*
X56389509Y-69889937D01*
X56257854Y-69850000D01*
X56389509Y-69810063D01*
X56619692Y-69687028D01*
X56821450Y-69521450D01*
X56987028Y-69319692D01*
X57110063Y-69089509D01*
X57185828Y-68839745D01*
X57211411Y-68580000D01*
X57185828Y-68320255D01*
X57110063Y-68070491D01*
X56987028Y-67840308D01*
X56821450Y-67638550D01*
X56619692Y-67472972D01*
X56389509Y-67349937D01*
X56257854Y-67310000D01*
X56389509Y-67270063D01*
X56619692Y-67147028D01*
X56821450Y-66981450D01*
X56987028Y-66779692D01*
X57110063Y-66549509D01*
X57185828Y-66299745D01*
X57211411Y-66040000D01*
X57185828Y-65780255D01*
X57110063Y-65530491D01*
X56987028Y-65300308D01*
X56821450Y-65098550D01*
X56619692Y-64932972D01*
X56389509Y-64809937D01*
X56257854Y-64770000D01*
X56389509Y-64730063D01*
X56619692Y-64607028D01*
X56821450Y-64441450D01*
X56987028Y-64239692D01*
X57110063Y-64009509D01*
X57185828Y-63759745D01*
X57211411Y-63500000D01*
X57185828Y-63240255D01*
X57110063Y-62990491D01*
X56987028Y-62760308D01*
X56821450Y-62558550D01*
X56619692Y-62392972D01*
X56389509Y-62269937D01*
X56257854Y-62230000D01*
X56389509Y-62190063D01*
X56619692Y-62067028D01*
X56821450Y-61901450D01*
X56987028Y-61699692D01*
X57110063Y-61469509D01*
X57185828Y-61219745D01*
X57211411Y-60960000D01*
X57185828Y-60700255D01*
X57110063Y-60450491D01*
X56987028Y-60220308D01*
X56821450Y-60018550D01*
X56619692Y-59852972D01*
X56389509Y-59729937D01*
X56257854Y-59690000D01*
X56389509Y-59650063D01*
X56619692Y-59527028D01*
X56821450Y-59361450D01*
X56987028Y-59159692D01*
X57110063Y-58929509D01*
X57185828Y-58679745D01*
X57211411Y-58420000D01*
X57185828Y-58160255D01*
X57110063Y-57910491D01*
X56987028Y-57680308D01*
X56821450Y-57478550D01*
X56619692Y-57312972D01*
X56389509Y-57189937D01*
X56257854Y-57150000D01*
X56389509Y-57110063D01*
X56619692Y-56987028D01*
X56821450Y-56821450D01*
X56987028Y-56619692D01*
X57110063Y-56389509D01*
X57185828Y-56139745D01*
X57211411Y-55880000D01*
X57185828Y-55620255D01*
X57110063Y-55370491D01*
X56987028Y-55140308D01*
X56821450Y-54938550D01*
X56619692Y-54772972D01*
X56389509Y-54649937D01*
X56257854Y-54610000D01*
X56389509Y-54570063D01*
X56619692Y-54447028D01*
X56821450Y-54281450D01*
X56987028Y-54079692D01*
X57110063Y-53849509D01*
X57185828Y-53599745D01*
X57211411Y-53340000D01*
X57185828Y-53080255D01*
X57110063Y-52830491D01*
X56987028Y-52600308D01*
X56821450Y-52398550D01*
X56619692Y-52232972D01*
X56389509Y-52109937D01*
X56257854Y-52070000D01*
X56389509Y-52030063D01*
X56619692Y-51907028D01*
X56821450Y-51741450D01*
X56987028Y-51539692D01*
X57110063Y-51309509D01*
X57185828Y-51059745D01*
X57211411Y-50800000D01*
X57185828Y-50540255D01*
X57110063Y-50290491D01*
X56987028Y-50060308D01*
X56821450Y-49858550D01*
X56619692Y-49692972D01*
X56389509Y-49569937D01*
X56139745Y-49494172D01*
X55945091Y-49475000D01*
X55814909Y-49475000D01*
X55620255Y-49494172D01*
X55370491Y-49569937D01*
X55140308Y-49692972D01*
X54938550Y-49858550D01*
X54772972Y-50060308D01*
X54649937Y-50290491D01*
X54574172Y-50540255D01*
X54548589Y-50800000D01*
X54424998Y-50800000D01*
X54424998Y-47317977D01*
X54429231Y-47274998D01*
X54412337Y-47103468D01*
X54362303Y-46938530D01*
X54360416Y-46935000D01*
X54281054Y-46786522D01*
X54271598Y-46775000D01*
X55076912Y-46775000D01*
X55140308Y-46827028D01*
X55370491Y-46950063D01*
X55620255Y-47025828D01*
X55814909Y-47045000D01*
X55945091Y-47045000D01*
X56139745Y-47025828D01*
X56389509Y-46950063D01*
X56619692Y-46827028D01*
X56821450Y-46661450D01*
X56987028Y-46459692D01*
X57110063Y-46229509D01*
X57185828Y-45979745D01*
X57211411Y-45720000D01*
X57185828Y-45460255D01*
X57110063Y-45210491D01*
X56987028Y-44980308D01*
X56827601Y-44786045D01*
X56862339Y-44671530D01*
X56879233Y-44500000D01*
X56862339Y-44328470D01*
X56812305Y-44163532D01*
X56731056Y-44011524D01*
X56649109Y-43911672D01*
X55649116Y-42911680D01*
X55621712Y-42878288D01*
X55488476Y-42768944D01*
X55336468Y-42687695D01*
X55171530Y-42637661D01*
X55042979Y-42625000D01*
X55000000Y-42620767D01*
X54957021Y-42625000D01*
X50992979Y-42625000D01*
X50950000Y-42620767D01*
X50907021Y-42625000D01*
X50865177Y-42629121D01*
X50800000Y-42622702D01*
X48800000Y-42622702D01*
X48706884Y-42631873D01*
X48617346Y-42659034D01*
X48544520Y-42697960D01*
X48455382Y-42725000D01*
X45442978Y-42725000D01*
X45399999Y-42720767D01*
X45228469Y-42737661D01*
X45205737Y-42744557D01*
X45063532Y-42787695D01*
X44977298Y-42833787D01*
X44977298Y-41950000D01*
X44968127Y-41856884D01*
X44940966Y-41767346D01*
X44896859Y-41684827D01*
X44837501Y-41612499D01*
X44765173Y-41553141D01*
X44682654Y-41509034D01*
X44593116Y-41481873D01*
X44500000Y-41472702D01*
X42500000Y-41472702D01*
X42406884Y-41481873D01*
X42317346Y-41509034D01*
X42234827Y-41553141D01*
X42208192Y-41575000D01*
X39330261Y-41575000D01*
X39275000Y-41569557D01*
X39219738Y-41575000D01*
X39219736Y-41575000D01*
X39054462Y-41591278D01*
X38857025Y-41651170D01*
X38875000Y-41560803D01*
X38875000Y-41339197D01*
X38831767Y-41121850D01*
X38746962Y-40917113D01*
X38623844Y-40732855D01*
X38467145Y-40576156D01*
X38282887Y-40453038D01*
X38078150Y-40368233D01*
X37860803Y-40325000D01*
X37639197Y-40325000D01*
X37421850Y-40368233D01*
X37217113Y-40453038D01*
X37032855Y-40576156D01*
X36876156Y-40732855D01*
X36753038Y-40917113D01*
X36668233Y-41121850D01*
X36625000Y-41339197D01*
X36625000Y-41560803D01*
X36640755Y-41640007D01*
X36500000Y-41780762D01*
X36500000Y-38500000D01*
X57500000Y-38500000D01*
X57500001Y-78500000D01*
G36*
X42234827Y-43846859D02*
G01*
X42240703Y-43850000D01*
X42234827Y-43853141D01*
X42162499Y-43912499D01*
X42103141Y-43984827D01*
X42059034Y-44067346D01*
X42031873Y-44156884D01*
X42022702Y-44250000D01*
X42022702Y-45750000D01*
X42031873Y-45843116D01*
X42059034Y-45932654D01*
X42103141Y-46015173D01*
X42162499Y-46087501D01*
X42234827Y-46146859D01*
X42317346Y-46190966D01*
X42406884Y-46218127D01*
X42500000Y-46227298D01*
X43839861Y-46227298D01*
X43950888Y-46338325D01*
X43978288Y-46371712D01*
X44111524Y-46481056D01*
X44214112Y-46535890D01*
X44268945Y-46638475D01*
X44350891Y-46738327D01*
X44650883Y-47038319D01*
X44678288Y-47071712D01*
X44811524Y-47181056D01*
X44963532Y-47262305D01*
X45005375Y-47274998D01*
X45128469Y-47312339D01*
X45299999Y-47329233D01*
X45342978Y-47325000D01*
X48557021Y-47325000D01*
X48594355Y-47328677D01*
X48617346Y-47340966D01*
X48706884Y-47368127D01*
X48800000Y-47377298D01*
X50800000Y-47377298D01*
X50893116Y-47368127D01*
X50982654Y-47340966D01*
X51065173Y-47296859D01*
X51137501Y-47237501D01*
X51196859Y-47165173D01*
X51240966Y-47082654D01*
X51258455Y-47025000D01*
X52062564Y-47025000D01*
X52674999Y-47637436D01*
X52674998Y-68037563D01*
X51061676Y-69650886D01*
X51028289Y-69678286D01*
X50918945Y-69811522D01*
X50917529Y-69814172D01*
X50837695Y-69963531D01*
X50787661Y-70128469D01*
X50770767Y-70299998D01*
X50775001Y-70342986D01*
X50775000Y-71637563D01*
X49687564Y-72725000D01*
X44172979Y-72725000D01*
X44130000Y-72720767D01*
X44087021Y-72725000D01*
X43958470Y-72737661D01*
X43793532Y-72787695D01*
X43641524Y-72868944D01*
X43508288Y-72978288D01*
X43480890Y-73011673D01*
X42591676Y-73900888D01*
X42558289Y-73928288D01*
X42448945Y-74061524D01*
X42423352Y-74109406D01*
X42367695Y-74213533D01*
X42317661Y-74378471D01*
X42300767Y-74550000D01*
X42305001Y-74592988D01*
X42305001Y-74875164D01*
X42236884Y-74881873D01*
X42147346Y-74909034D01*
X42064827Y-74953141D01*
X41992499Y-75012499D01*
X41933141Y-75084827D01*
X41889034Y-75167346D01*
X41861873Y-75256884D01*
X41855164Y-75325000D01*
X41612437Y-75325000D01*
X41175000Y-74887564D01*
X41175000Y-61689197D01*
X43075000Y-61689197D01*
X43075000Y-61910803D01*
X43118233Y-62128150D01*
X43203038Y-62332887D01*
X43326156Y-62517145D01*
X43482855Y-62673844D01*
X43667113Y-62796962D01*
X43871850Y-62881767D01*
X44089197Y-62925000D01*
X44310803Y-62925000D01*
X44528150Y-62881767D01*
X44732887Y-62796962D01*
X44917145Y-62673844D01*
X45073844Y-62517145D01*
X45196962Y-62332887D01*
X45281767Y-62128150D01*
X45310350Y-61984452D01*
X45514197Y-62025000D01*
X45735803Y-62025000D01*
X45953150Y-61981767D01*
X46157887Y-61896962D01*
X46342145Y-61773844D01*
X46498844Y-61617145D01*
X46621962Y-61432887D01*
X46706767Y-61228150D01*
X46750000Y-61010803D01*
X46750000Y-60789197D01*
X46734245Y-60709993D01*
X47437039Y-60007199D01*
X47461843Y-59986843D01*
X47543070Y-59887868D01*
X47603427Y-59774948D01*
X47640595Y-59652422D01*
X47650000Y-59556932D01*
X47650000Y-59556924D01*
X47653144Y-59525000D01*
X47650000Y-59493076D01*
X47650000Y-59072271D01*
X47696859Y-59015173D01*
X47740966Y-58932654D01*
X47768127Y-58843116D01*
X47777298Y-58750000D01*
X47777298Y-57150000D01*
X47768127Y-57056884D01*
X47740966Y-56967346D01*
X47696859Y-56884827D01*
X47637501Y-56812499D01*
X47565173Y-56753141D01*
X47482654Y-56709034D01*
X47393116Y-56681873D01*
X47300000Y-56672702D01*
X46700000Y-56672702D01*
X46606884Y-56681873D01*
X46517346Y-56709034D01*
X46434827Y-56753141D01*
X46362499Y-56812499D01*
X46303141Y-56884827D01*
X46259034Y-56967346D01*
X46231873Y-57056884D01*
X46222702Y-57150000D01*
X46222702Y-58750000D01*
X46231873Y-58843116D01*
X46259034Y-58932654D01*
X46303141Y-59015173D01*
X46350000Y-59072271D01*
X46350000Y-59255762D01*
X45815007Y-59790755D01*
X45735803Y-59775000D01*
X45514197Y-59775000D01*
X45296850Y-59818233D01*
X45250000Y-59837639D01*
X45250000Y-59072271D01*
X45296859Y-59015173D01*
X45340966Y-58932654D01*
X45368127Y-58843116D01*
X45377298Y-58750000D01*
X45377298Y-57150000D01*
X45368127Y-57056884D01*
X45340966Y-56967346D01*
X45296859Y-56884827D01*
X45237501Y-56812499D01*
X45165173Y-56753141D01*
X45082654Y-56709034D01*
X44993116Y-56681873D01*
X44900000Y-56672702D01*
X44300000Y-56672702D01*
X44206884Y-56681873D01*
X44117346Y-56709034D01*
X44034827Y-56753141D01*
X43962499Y-56812499D01*
X43903141Y-56884827D01*
X43859034Y-56967346D01*
X43831873Y-57056884D01*
X43822702Y-57150000D01*
X43822702Y-58750000D01*
X43831873Y-58843116D01*
X43859034Y-58932654D01*
X43903141Y-59015173D01*
X43950000Y-59072271D01*
X43950001Y-60702688D01*
X43871850Y-60718233D01*
X43667113Y-60803038D01*
X43482855Y-60926156D01*
X43326156Y-61082855D01*
X43203038Y-61267113D01*
X43118233Y-61471850D01*
X43075000Y-61689197D01*
X41175000Y-61689197D01*
X41175000Y-53840000D01*
X49018589Y-53840000D01*
X49044172Y-54099745D01*
X49119937Y-54349509D01*
X49242972Y-54579692D01*
X49408550Y-54781450D01*
X49610308Y-54947028D01*
X49840491Y-55070063D01*
X50090255Y-55145828D01*
X50284909Y-55165000D01*
X50415091Y-55165000D01*
X50609745Y-55145828D01*
X50859509Y-55070063D01*
X51089692Y-54947028D01*
X51291450Y-54781450D01*
X51457028Y-54579692D01*
X51580063Y-54349509D01*
X51655828Y-54099745D01*
X51681411Y-53840000D01*
X51655828Y-53580255D01*
X51580063Y-53330491D01*
X51457028Y-53100308D01*
X51291450Y-52898550D01*
X51089692Y-52732972D01*
X50891989Y-52627298D01*
X51200000Y-52627298D01*
X51293116Y-52618127D01*
X51382654Y-52590966D01*
X51465173Y-52546859D01*
X51537501Y-52487501D01*
X51596859Y-52415173D01*
X51640966Y-52332654D01*
X51668127Y-52243116D01*
X51677298Y-52150000D01*
X51677298Y-50450000D01*
X51668127Y-50356884D01*
X51640966Y-50267346D01*
X51596859Y-50184827D01*
X51537501Y-50112499D01*
X51465173Y-50053141D01*
X51382654Y-50009034D01*
X51293116Y-49981873D01*
X51200000Y-49972702D01*
X49500000Y-49972702D01*
X49406884Y-49981873D01*
X49317346Y-50009034D01*
X49234827Y-50053141D01*
X49162499Y-50112499D01*
X49103141Y-50184827D01*
X49059034Y-50267346D01*
X49031873Y-50356884D01*
X49022702Y-50450000D01*
X49022702Y-52150000D01*
X49031873Y-52243116D01*
X49059034Y-52332654D01*
X49103141Y-52415173D01*
X49162499Y-52487501D01*
X49234827Y-52546859D01*
X49317346Y-52590966D01*
X49406884Y-52618127D01*
X49500000Y-52627298D01*
X49808011Y-52627298D01*
X49610308Y-52732972D01*
X49408550Y-52898550D01*
X49242972Y-53100308D01*
X49119937Y-53330491D01*
X49044172Y-53580255D01*
X49018589Y-53840000D01*
X41175000Y-53840000D01*
X41175000Y-49300898D01*
X41179233Y-49257919D01*
X41162339Y-49086389D01*
X41112305Y-48921451D01*
X41031056Y-48769443D01*
X41013848Y-48748475D01*
X40921712Y-48636207D01*
X40888326Y-48608808D01*
X39951197Y-47671680D01*
X39923793Y-47638288D01*
X39790557Y-47528944D01*
X39638549Y-47447695D01*
X39473611Y-47397661D01*
X39345060Y-47385000D01*
X39302081Y-47380767D01*
X39259102Y-47385000D01*
X39095984Y-47385000D01*
X39041450Y-47318550D01*
X38839692Y-47152972D01*
X38609509Y-47029937D01*
X38477854Y-46990000D01*
X38609509Y-46950063D01*
X38839692Y-46827028D01*
X39041450Y-46661450D01*
X39207028Y-46459692D01*
X39330063Y-46229509D01*
X39405828Y-45979745D01*
X39431411Y-45720000D01*
X39405828Y-45460255D01*
X39330063Y-45210491D01*
X39225000Y-45013931D01*
X39225000Y-44340989D01*
X39740990Y-43825000D01*
X42208192Y-43825000D01*
X42234827Y-43846859D01*
X42234827Y-43846859D01*
G37*
X42234827Y-43846859D02*
X42240703Y-43850000D01*
X42234827Y-43853141D01*
X42162499Y-43912499D01*
X42103141Y-43984827D01*
X42059034Y-44067346D01*
X42031873Y-44156884D01*
X42022702Y-44250000D01*
X42022702Y-45750000D01*
X42031873Y-45843116D01*
X42059034Y-45932654D01*
X42103141Y-46015173D01*
X42162499Y-46087501D01*
X42234827Y-46146859D01*
X42317346Y-46190966D01*
X42406884Y-46218127D01*
X42500000Y-46227298D01*
X43839861Y-46227298D01*
X43950888Y-46338325D01*
X43978288Y-46371712D01*
X44111524Y-46481056D01*
X44214112Y-46535890D01*
X44268945Y-46638475D01*
X44350891Y-46738327D01*
X44650883Y-47038319D01*
X44678288Y-47071712D01*
X44811524Y-47181056D01*
X44963532Y-47262305D01*
X45005375Y-47274998D01*
X45128469Y-47312339D01*
X45299999Y-47329233D01*
X45342978Y-47325000D01*
X48557021Y-47325000D01*
X48594355Y-47328677D01*
X48617346Y-47340966D01*
X48706884Y-47368127D01*
X48800000Y-47377298D01*
X50800000Y-47377298D01*
X50893116Y-47368127D01*
X50982654Y-47340966D01*
X51065173Y-47296859D01*
X51137501Y-47237501D01*
X51196859Y-47165173D01*
X51240966Y-47082654D01*
X51258455Y-47025000D01*
X52062564Y-47025000D01*
X52674999Y-47637436D01*
X52674998Y-68037563D01*
X51061676Y-69650886D01*
X51028289Y-69678286D01*
X50918945Y-69811522D01*
X50917529Y-69814172D01*
X50837695Y-69963531D01*
X50787661Y-70128469D01*
X50770767Y-70299998D01*
X50775001Y-70342986D01*
X50775000Y-71637563D01*
X49687564Y-72725000D01*
X44172979Y-72725000D01*
X44130000Y-72720767D01*
X44087021Y-72725000D01*
X43958470Y-72737661D01*
X43793532Y-72787695D01*
X43641524Y-72868944D01*
X43508288Y-72978288D01*
X43480890Y-73011673D01*
X42591676Y-73900888D01*
X42558289Y-73928288D01*
X42448945Y-74061524D01*
X42423352Y-74109406D01*
X42367695Y-74213533D01*
X42317661Y-74378471D01*
X42300767Y-74550000D01*
X42305001Y-74592988D01*
X42305001Y-74875164D01*
X42236884Y-74881873D01*
X42147346Y-74909034D01*
X42064827Y-74953141D01*
X41992499Y-75012499D01*
X41933141Y-75084827D01*
X41889034Y-75167346D01*
X41861873Y-75256884D01*
X41855164Y-75325000D01*
X41612437Y-75325000D01*
X41175000Y-74887564D01*
X41175000Y-61689197D01*
X43075000Y-61689197D01*
X43075000Y-61910803D01*
X43118233Y-62128150D01*
X43203038Y-62332887D01*
X43326156Y-62517145D01*
X43482855Y-62673844D01*
X43667113Y-62796962D01*
X43871850Y-62881767D01*
X44089197Y-62925000D01*
X44310803Y-62925000D01*
X44528150Y-62881767D01*
X44732887Y-62796962D01*
X44917145Y-62673844D01*
X45073844Y-62517145D01*
X45196962Y-62332887D01*
X45281767Y-62128150D01*
X45310350Y-61984452D01*
X45514197Y-62025000D01*
X45735803Y-62025000D01*
X45953150Y-61981767D01*
X46157887Y-61896962D01*
X46342145Y-61773844D01*
X46498844Y-61617145D01*
X46621962Y-61432887D01*
X46706767Y-61228150D01*
X46750000Y-61010803D01*
X46750000Y-60789197D01*
X46734245Y-60709993D01*
X47437039Y-60007199D01*
X47461843Y-59986843D01*
X47543070Y-59887868D01*
X47603427Y-59774948D01*
X47640595Y-59652422D01*
X47650000Y-59556932D01*
X47650000Y-59556924D01*
X47653144Y-59525000D01*
X47650000Y-59493076D01*
X47650000Y-59072271D01*
X47696859Y-59015173D01*
X47740966Y-58932654D01*
X47768127Y-58843116D01*
X47777298Y-58750000D01*
X47777298Y-57150000D01*
X47768127Y-57056884D01*
X47740966Y-56967346D01*
X47696859Y-56884827D01*
X47637501Y-56812499D01*
X47565173Y-56753141D01*
X47482654Y-56709034D01*
X47393116Y-56681873D01*
X47300000Y-56672702D01*
X46700000Y-56672702D01*
X46606884Y-56681873D01*
X46517346Y-56709034D01*
X46434827Y-56753141D01*
X46362499Y-56812499D01*
X46303141Y-56884827D01*
X46259034Y-56967346D01*
X46231873Y-57056884D01*
X46222702Y-57150000D01*
X46222702Y-58750000D01*
X46231873Y-58843116D01*
X46259034Y-58932654D01*
X46303141Y-59015173D01*
X46350000Y-59072271D01*
X46350000Y-59255762D01*
X45815007Y-59790755D01*
X45735803Y-59775000D01*
X45514197Y-59775000D01*
X45296850Y-59818233D01*
X45250000Y-59837639D01*
X45250000Y-59072271D01*
X45296859Y-59015173D01*
X45340966Y-58932654D01*
X45368127Y-58843116D01*
X45377298Y-58750000D01*
X45377298Y-57150000D01*
X45368127Y-57056884D01*
X45340966Y-56967346D01*
X45296859Y-56884827D01*
X45237501Y-56812499D01*
X45165173Y-56753141D01*
X45082654Y-56709034D01*
X44993116Y-56681873D01*
X44900000Y-56672702D01*
X44300000Y-56672702D01*
X44206884Y-56681873D01*
X44117346Y-56709034D01*
X44034827Y-56753141D01*
X43962499Y-56812499D01*
X43903141Y-56884827D01*
X43859034Y-56967346D01*
X43831873Y-57056884D01*
X43822702Y-57150000D01*
X43822702Y-58750000D01*
X43831873Y-58843116D01*
X43859034Y-58932654D01*
X43903141Y-59015173D01*
X43950000Y-59072271D01*
X43950001Y-60702688D01*
X43871850Y-60718233D01*
X43667113Y-60803038D01*
X43482855Y-60926156D01*
X43326156Y-61082855D01*
X43203038Y-61267113D01*
X43118233Y-61471850D01*
X43075000Y-61689197D01*
X41175000Y-61689197D01*
X41175000Y-53840000D01*
X49018589Y-53840000D01*
X49044172Y-54099745D01*
X49119937Y-54349509D01*
X49242972Y-54579692D01*
X49408550Y-54781450D01*
X49610308Y-54947028D01*
X49840491Y-55070063D01*
X50090255Y-55145828D01*
X50284909Y-55165000D01*
X50415091Y-55165000D01*
X50609745Y-55145828D01*
X50859509Y-55070063D01*
X51089692Y-54947028D01*
X51291450Y-54781450D01*
X51457028Y-54579692D01*
X51580063Y-54349509D01*
X51655828Y-54099745D01*
X51681411Y-53840000D01*
X51655828Y-53580255D01*
X51580063Y-53330491D01*
X51457028Y-53100308D01*
X51291450Y-52898550D01*
X51089692Y-52732972D01*
X50891989Y-52627298D01*
X51200000Y-52627298D01*
X51293116Y-52618127D01*
X51382654Y-52590966D01*
X51465173Y-52546859D01*
X51537501Y-52487501D01*
X51596859Y-52415173D01*
X51640966Y-52332654D01*
X51668127Y-52243116D01*
X51677298Y-52150000D01*
X51677298Y-50450000D01*
X51668127Y-50356884D01*
X51640966Y-50267346D01*
X51596859Y-50184827D01*
X51537501Y-50112499D01*
X51465173Y-50053141D01*
X51382654Y-50009034D01*
X51293116Y-49981873D01*
X51200000Y-49972702D01*
X49500000Y-49972702D01*
X49406884Y-49981873D01*
X49317346Y-50009034D01*
X49234827Y-50053141D01*
X49162499Y-50112499D01*
X49103141Y-50184827D01*
X49059034Y-50267346D01*
X49031873Y-50356884D01*
X49022702Y-50450000D01*
X49022702Y-52150000D01*
X49031873Y-52243116D01*
X49059034Y-52332654D01*
X49103141Y-52415173D01*
X49162499Y-52487501D01*
X49234827Y-52546859D01*
X49317346Y-52590966D01*
X49406884Y-52618127D01*
X49500000Y-52627298D01*
X49808011Y-52627298D01*
X49610308Y-52732972D01*
X49408550Y-52898550D01*
X49242972Y-53100308D01*
X49119937Y-53330491D01*
X49044172Y-53580255D01*
X49018589Y-53840000D01*
X41175000Y-53840000D01*
X41175000Y-49300898D01*
X41179233Y-49257919D01*
X41162339Y-49086389D01*
X41112305Y-48921451D01*
X41031056Y-48769443D01*
X41013848Y-48748475D01*
X40921712Y-48636207D01*
X40888326Y-48608808D01*
X39951197Y-47671680D01*
X39923793Y-47638288D01*
X39790557Y-47528944D01*
X39638549Y-47447695D01*
X39473611Y-47397661D01*
X39345060Y-47385000D01*
X39302081Y-47380767D01*
X39259102Y-47385000D01*
X39095984Y-47385000D01*
X39041450Y-47318550D01*
X38839692Y-47152972D01*
X38609509Y-47029937D01*
X38477854Y-46990000D01*
X38609509Y-46950063D01*
X38839692Y-46827028D01*
X39041450Y-46661450D01*
X39207028Y-46459692D01*
X39330063Y-46229509D01*
X39405828Y-45979745D01*
X39431411Y-45720000D01*
X39405828Y-45460255D01*
X39330063Y-45210491D01*
X39225000Y-45013931D01*
X39225000Y-44340989D01*
X39740990Y-43825000D01*
X42208192Y-43825000D01*
X42234827Y-43846859D01*
G36*
X39425000Y-49620356D02*
G01*
X39425000Y-53274910D01*
X39405828Y-53080255D01*
X39330063Y-52830491D01*
X39207028Y-52600308D01*
X39041450Y-52398550D01*
X38839692Y-52232972D01*
X38609509Y-52109937D01*
X38359745Y-52034172D01*
X38165091Y-52015000D01*
X38034909Y-52015000D01*
X37840255Y-52034172D01*
X37590491Y-52109937D01*
X37360308Y-52232972D01*
X37250000Y-52323499D01*
X37250000Y-49276501D01*
X37360308Y-49367028D01*
X37590491Y-49490063D01*
X37840255Y-49565828D01*
X38034909Y-49585000D01*
X38165091Y-49585000D01*
X38359745Y-49565828D01*
X38609509Y-49490063D01*
X38839692Y-49367028D01*
X39022031Y-49217387D01*
X39425000Y-49620356D01*
X39425000Y-49620356D01*
G37*
X39425000Y-49620356D02*
X39425000Y-53274910D01*
X39405828Y-53080255D01*
X39330063Y-52830491D01*
X39207028Y-52600308D01*
X39041450Y-52398550D01*
X38839692Y-52232972D01*
X38609509Y-52109937D01*
X38359745Y-52034172D01*
X38165091Y-52015000D01*
X38034909Y-52015000D01*
X37840255Y-52034172D01*
X37590491Y-52109937D01*
X37360308Y-52232972D01*
X37250000Y-52323499D01*
X37250000Y-49276501D01*
X37360308Y-49367028D01*
X37590491Y-49490063D01*
X37840255Y-49565828D01*
X38034909Y-49585000D01*
X38165091Y-49585000D01*
X38359745Y-49565828D01*
X38609509Y-49490063D01*
X38839692Y-49367028D01*
X39022031Y-49217387D01*
X39425000Y-49620356D01*
M02*
